Coordinates
version=1
nRows=29
nColumns=24
inDegrees=yes

Units are S.I. units (second, meters, Newtons, ...)
Angles are in degrees.

endheader
time	pelvis_tilt	pelvis_list	pelvis_rotation	pelvis_tx	pelvis_ty	pelvis_tz	hip_flexion_r	hip_adduction_r	hip_rotation_r	knee_angle_r	ankle_angle_r	subtalar_angle_r	mtp_angle_r	hip_flexion_l	hip_adduction_l	hip_rotation_l	knee_angle_l	ankle_angle_l	subtalar_angle_l	mtp_angle_l	lumbar_extension	lumbar_bending	lumbar_rotation
      1.17983333	      5.48199992	      4.38250490	     -3.01653826	      0.15778523	      1.02783888	      0.25611016	      8.86117534	     -4.84389188	     -2.10793565	    -63.84595057	      3.53283157	    -22.16325860	     -2.03302050	      2.50281426	      7.06777202	     -0.58979623	    -11.75616342	      3.87122195	    -11.86839496	      3.20253920	     -9.13994668	     -6.30513520	      5.83334031
      1.18400000	      5.45451983	      4.23045732	     -2.97573034	      0.16285008	      1.02856746	      0.25587008	      9.36052243	     -4.59315468	     -2.07157699	    -63.36222542	      3.75998065	    -22.09169314	     -2.05715137	      2.05987068	      6.94182737	     -0.47166341	    -11.47491613	      3.96468916	    -11.90491489	      3.17702699	     -9.15089414	     -6.13672773	      5.66847481
      1.18816667	      5.44598356	      4.10952032	     -2.91363667	      0.16789881	      1.02926994	      0.25560794	      9.82716184	     -4.38634891	     -2.05940277	    -62.82785188	      3.97519731	    -21.96246876	     -2.11178004	      1.57821499	      6.85856886	     -0.25451103	    -11.14975402	      4.03617778	    -12.03756773	      3.10927073	     -9.18882018	     -6.02073420	      5.32782308
      1.19233333	      5.41345820	      3.96321096	     -2.87290649	      0.17298212	      1.02994068	      0.25540655	     10.30036267	     -4.13551497	     -2.01481741	    -62.21738726	      4.17917966	    -21.88496657	     -2.12462725	      1.13415480	      6.72981427	     -0.17573785	    -10.85120232	      4.10857073	    -12.03782329	      3.08448836	     -9.18184878	     -5.85866132	      5.21704181
      1.19650000	      5.42286544	      3.84187085	     -2.80073322	      0.17804342	      1.03061277	      0.25516134	     10.70950502	     -3.93010154	     -2.01191233	    -61.55277600	      4.37311090	    -21.72818719	     -2.15363779	      0.62734328	      6.63898937	      0.02204523	    -10.51362822	      4.18276009	    -12.14120631	      3.01512774	     -9.23570916	     -5.74190897	      4.89924167
      1.20066667	      5.36148523	      3.72255298	     -2.75689128	      0.18313187	      1.03113861	      0.25497812	     11.19422780	     -3.71039392	     -1.96605608	    -60.85004694	      4.55125743	    -21.63401772	     -2.15638473	      0.20782585	      6.53404437	      0.09469754	    -10.19528553	      4.26003140	    -12.11482137	      2.99630021	     -9.19526573	     -5.60171634	      4.79841462
      1.20483333	      5.36512760	      3.58743585	     -2.65758667	      0.18820994	      1.03176083	      0.25473269	     11.56201234	     -3.49091254	     -1.98573308	    -60.05058383	      4.70828745	    -21.46407683	     -2.16501224	     -0.29174392	      6.42090169	      0.29965138	     -9.86210055	      4.32624697	    -12.22174433	      2.92876870	     -9.23852088	     -5.47238302	      4.44412323
      1.20900000	      5.32406918	      3.45721484	     -2.58997155	      0.19329135	      1.03225854	      0.25455583	     11.97771799	     -3.26066503	     -1.95648335	    -59.21746084	      4.86076289	    -21.34077966	     -2.16389087	     -0.73141049	      6.30019252	      0.38941955	     -9.54674832	      4.37814803	    -12.21777788	      2.89591164	     -9.22369006	     -5.33711196	      4.29461720
      1.21316667	      5.31372706	      3.35380717	     -2.49665223	      0.19836388	      1.03273736	      0.25433607	     12.34586499	     -3.07934624	     -1.96835081	    -58.34577992	      4.99047768	    -21.20800809	     -2.15854009	     -1.22519724	      6.21594975	      0.58206423	     -9.18497847	      4.44673333	    -12.30460212	      2.82017309	     -9.25593442	     -5.22846477	      3.93982219
      1.21733333	      5.26192272	      3.23150363	     -2.41449646	      0.20345935	      1.03314029	      0.25416523	     12.73813204	     -2.86562576	     -1.95832615	    -57.41220895	      5.10796172	    -21.08586832	     -2.15230553	     -1.65478187	      6.09752405	      0.66757213	     -8.86461120	      4.50513134	    -12.28934205	      2.78750052	     -9.22416924	     -5.09745702	      3.79234563
      1.22150000	      5.25729828	      3.13625429	     -2.31444787	      0.20854424	      1.03355255	      0.25395989	     13.06437295	     -2.69820242	     -1.97647766	    -56.44006755	      5.19020715	    -20.98624896	     -2.13827452	     -2.15728666	      6.01609851	      0.84534506	     -8.49596402	      4.58006928	    -12.35424679	      2.71675893	     -9.25800812	     -4.99881806	      3.44046505
      1.22566667	      5.19882781	      3.02400192	     -2.22430265	      0.21363794	      1.03385147	      0.25379747	     13.43280115	     -2.50140607	     -1.97261215	    -55.41847054	      5.28099761	    -20.87595172	     -2.12930932	     -2.57884526	      5.90400503	      0.92841581	     -8.17302045	      4.63450580	    -12.32958356	      2.68613807	     -9.22157770	     -4.87754740	      3.28843175
      1.22983333	      5.20220569	      2.93674696	     -2.12019870	      0.21870686	      1.03418086	      0.25361730	     13.71901501	     -2.34509929	     -1.98907183	    -54.35880301	      5.32509034	    -20.81631443	     -2.10908514	     -3.08931226	      5.82539957	      1.10537032	     -7.80070419	      4.70464408	    -12.38964128	      2.61256788	     -9.27279885	     -4.79238717	      2.91869061
      1.23400000	      5.13930897	      2.83127070	     -2.01836106	      0.22381419	      1.03439116	      0.25345037	     14.05575483	     -2.16852808	     -2.00577209	    -53.24818865	      5.37364559	    -20.71694679	     -2.09834166	     -3.50493155	      5.71618471	      1.18650510	     -7.47918373	      4.76896047	    -12.36836872	      2.57981252	     -9.22269456	     -4.67655498	      2.75486055
      1.23816667	      5.13726038	      2.74879320	     -1.91027035	      0.22888588	      1.03462543	      0.25328279	     14.31476592	     -2.02383840	     -2.02590780	    -52.10455918	      5.37474640	    -20.69447883	     -2.07580134	     -4.00589862	      5.63627416	      1.34749421	     -7.11234314	      4.84445567	    -12.40710061	      2.50877988	     -9.26591060	     -4.59446052	      2.39187606
      1.24233333	      5.06041762	      2.66194169	     -1.80515665	      0.23398910	      1.03471142	      0.25312805	     14.63945251	     -1.87577449	     -2.04682748	    -50.92557238	      5.39175952	    -20.60935135	     -2.06386819	     -4.40153700	      5.54293323	      1.42696349	     -6.79630792	      4.91502547	    -12.38281443	      2.47501893	     -9.20060274	     -4.49447165	      2.21857838
      1.24650000	      5.01846729	      2.57246895	     -1.69849274	      0.23908133	      1.03480499	      0.25297541	     14.90825839	     -1.73064082	     -2.07436149	    -49.70461857	      5.37545852	    -20.56518210	     -2.05284094	     -4.84464752	      5.44662629	      1.52495012	     -6.45882219	      4.99821078	    -12.36041491	      2.44177237	     -9.19244298	     -4.39720207	      1.98243636
      1.25066667	      4.99599499	      2.50594135	     -1.58841308	      0.24415663	      1.03486988	      0.25284014	     15.14187785	     -1.61158998	     -2.09468260	    -48.45147547	      5.31210376	    -20.59284465	     -2.03131809	     -5.31192649	      5.37530955	      1.67029750	     -6.11403918	      5.09111066	    -12.38508173	      2.37891802	     -9.20356147	     -4.33638008	      1.60896123
      1.25483333	      4.95718122	      2.43062796	     -1.48185212	      0.24923633	      1.03487889	      0.25269915	     15.37574829	     -1.49009467	     -2.12212370	    -47.16009995	      5.26205603	    -20.56310028	     -2.01034759	     -5.75146922	      5.29145385	      1.77364865	     -5.78805773	      5.17730903	    -12.37739396	      2.32390239	     -9.19409257	     -4.25600446	      1.35707086
      1.25900000	      4.90263349	      2.35915435	     -1.37714075	      0.25432358	      1.03481449	      0.25257200	     15.61137893	     -1.37474072	     -2.14706677	    -45.83720822	      5.19815616	    -20.54140172	     -1.98984727	     -6.16826938	      5.20861491	      1.86769485	     -5.47392819	      5.26788024	    -12.35831457	      2.27204043	     -9.16575061	     -4.17908294	      1.11015883
      1.26316667	      4.83820324	      2.29675299	     -1.27573024	      0.25941007	      1.03469404	      0.25245628	     15.84335624	     -1.27226647	     -2.16953265	    -44.48485076	      5.12210044	    -20.51825727	     -1.96673146	     -6.56943082	      5.13404964	      1.95566917	     -5.16875154	      5.35998155	    -12.33731913	      2.21850171	     -9.12594838	     -4.11289915	      0.85609283
      1.26733333	      4.75699953	      2.23642577	     -1.18013660	      0.26450860	      1.03451554	      0.25234042	     16.07660857	     -1.17794301	     -2.19454661	    -43.10024659	      5.06724846	    -20.43135877	     -1.95447599	     -6.94091694	      5.06069479	      2.00776311	     -4.88688637	      5.44210015	    -12.29423498	      2.19179234	     -9.05489806	     -4.03961133	      0.70190555
      1.27150000	      4.73718359	      2.16966320	     -1.08153462	      0.26958219	      1.03438752	      0.25224714	     16.21920010	     -1.07658224	     -2.21721237	    -41.66697244	      4.93154092	    -20.46424282	     -1.92969389	     -7.39088222	      4.97862824	      2.11340022	     -4.58086721	      5.56373282	    -12.27093866	      2.14187396	     -9.08327079	     -3.97705755	      0.39605803
      1.27566667	      4.64899544	      2.12164648	     -0.98880144	      0.27467813	      1.03411426	      0.25215535	     16.42770875	     -1.00037390	     -2.23922149	    -40.22289589	      4.82792871	    -20.41236753	     -1.90069146	     -7.75119976	      4.91632415	      2.19472569	     -4.30669536	      5.66836966	    -12.24859589	      2.09304705	     -9.01594391	     -3.92396266	      0.16756746
      1.27983333	      4.55835324	      2.07384157	     -0.90978507	      0.27979866	      1.03379111	      0.25206757	     16.62548350	     -0.93383223	     -2.27700766	    -38.75836589	      4.75557948	    -20.28314640	     -1.88467966	     -8.10353237	      4.85484420	      2.22518868	     -4.04454001	      5.76829480	    -12.21270991	      2.06995921	     -8.93163431	     -3.86955434	      0.03764448
      1.28400000	      4.51768277	      2.02104448	     -0.81918324	      0.28487636	      1.03352854	      0.25200070	     16.73445534	     -0.85368179	     -2.28924895	    -37.22575137	      4.58965229	    -20.28914840	     -1.84852553	     -8.50839546	      4.78502188	      2.33011811	     -3.78599602	      5.89918936	    -12.18435380	      2.02167354	     -8.93384776	     -3.81442792	     -0.24065314
      1.28816667	      4.42205712	      1.97654225	     -0.74328182	      0.29000167	      1.03313372	      0.25193660	     16.89631916	     -0.79526063	     -2.33035785	    -35.69051280	      4.49121797	    -20.14064553	     -1.82286181	     -8.84188318	      4.72468597	      2.36976759	     -3.55325468	      6.01282245	    -12.15520428	      1.99381830	     -8.83974560	     -3.75297321	     -0.37699575
      1.29233333	      4.38616259	      1.93229938	     -0.66799552	      0.29510174	      1.03279722	      0.25189802	     16.96750652	     -0.73113585	     -2.35096129	    -34.11012870	      4.32740550	    -20.09766095	     -1.77122352	     -9.24818797	      4.66402565	      2.45407185	     -3.30394563	      6.15544792	    -12.12513743	      1.94293745	     -8.83977738	     -3.71525019	     -0.62238735
      1.29650000	      4.27456507	      1.88994802	     -0.60608440	      0.30026246	      1.03231500	      0.25184911	     17.11014181	     -0.67960593	     -2.39406180	    -32.52233090	      4.22225357	    -19.89268348	     -1.74538257	     -9.55818408	      4.60776409	      2.48531934	     -3.08937007	      6.28698711	    -12.09604254	      1.92196877	     -8.72175617	     -3.65545133	     -0.71800938
